<svg id="Layer_1" data-name="Layer 1" xmlns="http://www.w3.org/2000/svg" viewBox="0 0 226.61 108"><defs><style>.cls-1,.cls-2{fill:#1f2a44;}.cls-2{font-size:18px;font-family:AgencyFB-Bold, Agency FB;font-weight:700;letter-spacing:0.1em;}</style></defs><path class="cls-1" d="M27.73,68.46a1.34,1.34,0,0,0,1.49,1.17l17.23-2.1a4.27,4.27,0,0,0,3.71-4.78L48.47,49a4.8,4.8,0,0,0-2.06-3.64c-.17-.11-1.51-.76-4-1.92,2.1-1.68,3.22-2.59,3.33-2.73a4.56,4.56,0,0,0,1-3.86l-1.46-12c-.35-2.86-1.89-4.1-4.65-3.77l-17.13,2.1a1.33,1.33,0,0,0-1.15,1.48Zm13.63-19.7L43,62l-8.88,1.09L32.21,47.6l5.47-.67Zm-4.44-21.3a1.61,1.61,0,0,1,1.81,1.43L40,39.31a1.58,1.58,0,0,1-1.39,1.77l-7,.88L29.85,28.32Z"/><path class="cls-1" d="M106.75,30.83a5.35,5.35,0,0,0-4,1.51,5.53,5.53,0,0,0-1.47,4.09V54.92a5.84,5.84,0,0,0,1.68,4.45A6.29,6.29,0,0,0,107.49,61h7v5.19l-1.06,0-.29,0c-2.4.17-4.78.33-7.18.52l-4.78,4.78q6-.57,12-.93l.57,0c.56,0,1.13-.06,1.68-.12l2-.07a4.24,4.24,0,0,0,1.14-.14,3.26,3.26,0,0,0,2.75-3.39V31h-6.83C110.14,31,107.61,30.83,106.75,30.83Zm3.54,24.66A2.26,2.26,0,0,1,108,53.22V38.74a1.94,1.94,0,0,1,2.21-2.19c.57,0,2,.13,4.28.36V55.49Z"/><path class="cls-1" d="M53.78,61.39C54,63.89,55.44,65,58,64.77l12.2-1.18q3.8-.37,3.43-4.12L71.43,36.85c-.25-2.47-1.64-3.6-4.16-3.35L55.08,34.68c-2.55.25-3.74,1.62-3.49,4.1ZM59.27,40l4.88-.46a.77.77,0,0,1,.87.7l1.66,17.13a.81.81,0,0,1-.72.88l-4.86.48a.82.82,0,0,1-.88-.73L58.55,40.89A.8.8,0,0,1,59.27,40Z"/><path class="cls-1" d="M79.64,62.19l5.2-.26a.81.81,0,0,0,.78-.86L84.48,38.34a.78.78,0,0,1,.76-.86L90,37.14a.83.83,0,0,1,.88.78L92,60.75a.83.83,0,0,0,.86.78l5.24-.27a.84.84,0,0,0,.78-.88L97.61,34.59c-.12-2.46-1.43-3.6-3.93-3.49l-4.88.25c-.66,0-1.69.11-2.61.19s-1.77.15-2.06.17l-6,.3a.83.83,0,0,0-.78.86l1.47,28.54A.81.81,0,0,0,79.64,62.19Z"/><path class="cls-1" d="M125.8,61.05h13.27a6.29,6.29,0,0,0,4.55-1.62A5.85,5.85,0,0,0,145.33,55V34.4c0-2.46-1.25-3.68-3.75-3.68-1.16,0-2.69.11-4.72.11h-4.2a.65.65,0,0,1-.64-.65V14.62a.16.16,0,0,0-.28-.11l-6.33,6.34a.84.84,0,0,0-.25.6v39A.65.65,0,0,0,125.8,61.05ZM132,37.27a.63.63,0,0,1,.61-.63l5.17-.09a.63.63,0,0,1,.64.63V53.07c0,1.52-.73,2.27-2.18,2.27h-3.6a.64.64,0,0,1-.64-.63Z"/><polygon class="cls-1" points="156.27 32.19 149.54 31.82 147.94 62 154.65 62.37 156.27 32.19"/><path class="cls-1" d="M158,24.49l-4-4.67a.27.27,0,0,0-.37,0l-4.68,4,4.15,4.86Z"/><path class="cls-1" d="M158.48,63.45l5.83.55a.48.48,0,0,0,.55-.43l2.21-23.31a.51.51,0,0,1,.54-.45l5.41.42a.52.52,0,0,1,.46.55l-2.23,23.38a.51.51,0,0,0,.45.55l5.85.55a.51.51,0,0,0,.56-.46l2.45-26c.25-2.46-.89-3.66-3.37-3.91l-15.85-1.5a.51.51,0,0,0-.55.45L158,62.92A.47.47,0,0,0,158.48,63.45Z"/><path class="cls-1" d="M200.87,39.24l-11.69-1.57c-2.56-.32-4,.73-4.33,3.2l-3,22.54c-.34,2.48.78,3.89,3.33,4.23l11.72,1.55q3.81.51,4.33-3.2l.82-6.27-6.5-.84-.67,5L189,63.07a.49.49,0,0,1-.4-.53l1-7.45a.44.44,0,0,1,.53-.4c.09,0,12.28,1.67,12.38,1.69,0-.15,0-.15.06-.38l1.68-12.55C204.55,41,203.43,39.58,200.87,39.24Zm-4.28,11.83c-1.09-.15-4.8-.69-6.39-.88.16-1.14.63-4.6.88-6.39a.8.8,0,0,1,.89-.68l4.69.65a.79.79,0,0,1,.8.78Z"/><path class="cls-1" d="M71.73,70c-13.87,1.61-29.5,3.49-43.27,5.43l.73,6.44c13.74-2.23,29.41-5,43.17-6.9C80.67,73.87,89,72.79,97.3,71.93l4.88-4.88C92,67.85,81.85,68.81,71.73,70Z"/><path class="cls-1" d="M176.2,69.32c-3.47-.46-6.92-.95-10.38-1.3s-7-.76-10.43-1-7-.49-10.46-.66-7-.25-10.49-.36c-3.91-.08-7.84-.12-11.74,0v.91a4.67,4.67,0,0,1-1.14,3.2c4.3-.3,8.61-.61,12.93-.78,3.45-.11,6.92-.3,10.39-.3s7-.1,10.42,0c6.93.07,13.87.47,20.79,1.14s13.79,1.81,20.69,2.8l-10.29-1.83C183.06,70.52,179.65,69.72,176.2,69.32Z"/><text class="cls-2" transform="translate(168.73 86.88) rotate(6.42)">LTD</text></svg>